<svg xmlns="http://www.w3.org/2000/svg" xmlns:xlink="http://www.w3.org/1999/xlink" contentStyleType="text/css" height="278px" preserveAspectRatio="none" style="width:431px;height:278px;background:#FFFFFF;" version="1.1" viewBox="0 0 431 278" width="431px" zoomAndPan="magnify"><defs/><g><line style="stroke:#181818;stroke-width:0.5;stroke-dasharray:5.0,5.0;" x1="39" x2="39" y1="52.5938" y2="226.9922"/><line style="stroke:#181818;stroke-width:0.5;stroke-dasharray:5.0,5.0;" x1="140.4209" x2="140.4209" y1="52.5938" y2="226.9922"/><line style="stroke:#181818;stroke-width:0.5;stroke-dasharray:5.0,5.0;" x1="273.3315" x2="273.3315" y1="52.5938" y2="226.9922"/><line style="stroke:#181818;stroke-width:0.5;stroke-dasharray:5.0,5.0;" x1="395.1724" x2="395.1724" y1="52.5938" y2="226.9922"/><rect fill="#E2E2F0" height="30.2969" rx="2.5" ry="2.5" style="stroke:#181818;stroke-width:0.5;" width="68.4209" x="5" y="21.2969"/><text fill="#000000" font-family="sans-serif" font-size="14" lengthAdjust="spacing" textLength="54.4209" x="12" y="41.292">Arduino</text><rect fill="#E2E2F0" height="30.2969" rx="2.5" ry="2.5" style="stroke:#181818;stroke-width:0.5;" width="68.4209" x="5" y="225.9922"/><text fill="#000000" font-family="sans-serif" font-size="14" lengthAdjust="spacing" textLength="54.4209" x="12" y="245.9873">Arduino</text><rect fill="#E2E2F0" height="46.5938" rx="2.5" ry="2.5" style="stroke:#181818;stroke-width:0.5;" width="114.5293" x="83.4209" y="5"/><text fill="#000000" font-family="sans-serif" font-size="14" lengthAdjust="spacing" textLength="48.4053" x="116.4829" y="24.9951">BM019</text><text fill="#000000" font-family="sans-serif" font-size="14" lengthAdjust="spacing" textLength="100.5293" x="90.4209" y="41.292">(RFID module)</text><rect fill="#E2E2F0" height="46.5938" rx="2.5" ry="2.5" style="stroke:#181818;stroke-width:0.5;" width="114.5293" x="83.4209" y="225.9922"/><text fill="#000000" font-family="sans-serif" font-size="14" lengthAdjust="spacing" textLength="48.4053" x="116.4829" y="245.9873">BM019</text><text fill="#000000" font-family="sans-serif" font-size="14" lengthAdjust="spacing" textLength="100.5293" x="90.4209" y="262.2842">(RFID module)</text><rect fill="#E2E2F0" height="46.5938" rx="2.5" ry="2.5" style="stroke:#181818;stroke-width:0.5;" width="91.4102" x="228.3315" y="5"/><text fill="#000000" font-family="sans-serif" font-size="14" lengthAdjust="spacing" textLength="55.8975" x="246.0879" y="24.9951">CR95HF</text><text fill="#000000" font-family="sans-serif" font-size="14" lengthAdjust="spacing" textLength="77.4102" x="235.3315" y="41.292">(RFID chip)</text><rect fill="#E2E2F0" height="46.5938" rx="2.5" ry="2.5" style="stroke:#181818;stroke-width:0.5;" width="91.4102" x="228.3315" y="225.9922"/><text fill="#000000" font-family="sans-serif" font-size="14" lengthAdjust="spacing" textLength="55.8975" x="246.0879" y="245.9873">CR95HF</text><text fill="#000000" font-family="sans-serif" font-size="14" lengthAdjust="spacing" textLength="77.4102" x="235.3315" y="262.2842">(RFID chip)</text><rect fill="#E2E2F0" height="30.2969" rx="2.5" ry="2.5" style="stroke:#181818;stroke-width:0.5;" width="59.1855" x="366.1724" y="21.2969"/><text fill="#000000" font-family="sans-serif" font-size="14" lengthAdjust="spacing" textLength="45.1855" x="373.1724" y="41.292">RF tag</text><rect fill="#E2E2F0" height="30.2969" rx="2.5" ry="2.5" style="stroke:#181818;stroke-width:0.5;" width="59.1855" x="366.1724" y="225.9922"/><text fill="#000000" font-family="sans-serif" font-size="14" lengthAdjust="spacing" textLength="45.1855" x="373.1724" y="245.9873">RF tag</text><polygon fill="#181818" points="128.6855,79.7266,138.6855,83.7266,128.6855,87.7266,132.6855,83.7266" style="stroke:#181818;stroke-width:1.0;"/><line style="stroke:#181818;stroke-width:1.0;" x1="39.2104" x2="134.6855" y1="83.7266" y2="83.7266"/><text fill="#000000" font-family="sans-serif" font-size="13" lengthAdjust="spacing" textLength="19.9253" x="46.2104" y="78.6606">SPI</text><polygon fill="#181818" points="262.0366,108.8594,272.0366,112.8594,262.0366,116.8594,266.0366,112.8594" style="stroke:#181818;stroke-width:1.0;"/><line style="stroke:#181818;stroke-width:1.0;" x1="140.6855" x2="268.0366" y1="112.8594" y2="112.8594"/><text fill="#000000" font-family="sans-serif" font-size="13" lengthAdjust="spacing" textLength="109.3511" x="147.6855" y="107.7935">CR95HF protocol</text><polygon fill="#181818" points="383.7651,137.9922,393.7651,141.9922,383.7651,145.9922,387.7651,141.9922" style="stroke:#181818;stroke-width:1.0;"/><line style="stroke:#181818;stroke-width:1.0;" x1="274.0366" x2="389.7651" y1="141.9922" y2="141.9922"/><text fill="#000000" font-family="sans-serif" font-size="13" lengthAdjust="spacing" textLength="97.7285" x="281.0366" y="136.9263">ISO/SEC 15693</text><polygon fill="#181818" points="285.0366,176.9922,275.0366,180.9922,285.0366,184.9922,281.0366,180.9922" style="stroke:#181818;stroke-width:1.0;"/><line style="stroke:#181818;stroke-width:1.0;" x1="279.0366" x2="394.7651" y1="180.9922" y2="180.9922"/><polygon fill="#181818" points="151.6855,190.9922,141.6855,194.9922,151.6855,198.9922,147.6855,194.9922" style="stroke:#181818;stroke-width:1.0;"/><line style="stroke:#181818;stroke-width:1.0;" x1="145.6855" x2="273.0366" y1="194.9922" y2="194.9922"/><polygon fill="#181818" points="50.2104,204.9922,40.2104,208.9922,50.2104,212.9922,46.2104,208.9922" style="stroke:#181818;stroke-width:1.0;"/><line style="stroke:#181818;stroke-width:1.0;" x1="44.2104" x2="139.6855" y1="208.9922" y2="208.9922"/><!--SRC=[SonAAStCozUrKtBoDJ2qZCdJ27BpT578pKyfpKdLL5AmKWWEyEJ2BWdKv1naQUhX1fD8piWi0Ek122iK5EMNv2Vdvt1XLGVK7kIcK9AO3jBX6Uol7-pgh61eQcPfp5LJKyC5ayHX2qupiJeLfmyS8Vu70000]--></g></svg>